<svg version="1.1" id="Layer_1" xmlns="http://www.w3.org/2000/svg" xmlns:xlink="http://www.w3.org/1999/xlink" x="0px" y="0px"
	 width="100%" viewBox="0 0 649 649" enable-background="new 0 0 649 649" xml:space="preserve">
<path fill="#C66BFF" opacity="1.000000" stroke="none" 
	d="
M419.000000,650.000000 
	C279.333344,650.000000 140.166718,650.000000 1.000056,650.000000 
	C1.000037,433.666718 1.000037,217.333466 1.000019,1.000143 
	C217.333237,1.000095 433.666473,1.000095 649.999756,1.000048 
	C649.999878,217.333191 649.999878,433.666382 649.999939,649.999756 
	C573.166687,650.000000 496.333344,650.000000 419.000000,650.000000 
M186.857971,209.804642 
	C193.988190,211.522385 193.988403,211.522400 193.254761,219.073700 
	C193.045456,221.227905 192.794067,223.378876 192.630508,225.536530 
	C190.956757,247.615677 189.159531,269.676086 192.048630,291.816742 
	C195.366699,317.244934 210.828842,334.170502 235.884766,339.151184 
	C253.436569,342.640137 271.109009,341.482117 288.603821,339.172729 
	C299.897552,337.681915 311.375580,335.527679 322.002441,331.594299 
	C333.861145,327.204926 338.381531,314.304810 334.237244,302.511627 
	C330.280365,291.251862 318.680908,285.023163 306.537384,287.447876 
	C298.714844,289.009766 290.888153,290.986176 282.975250,291.558136 
	C271.067963,292.418732 259.084442,292.286163 247.131607,292.425537 
	C241.998230,292.485413 239.680695,289.520233 239.567444,284.535950 
	C239.038315,261.248260 238.268646,237.963394 238.025146,214.672928 
	C237.901093,202.806351 238.363541,203.023346 249.926498,200.782623 
	C264.631592,197.932999 279.293060,194.833588 293.906860,191.546265 
	C303.689209,189.345764 310.227936,183.216461 312.442139,173.357544 
	C314.510345,164.148773 311.697876,156.192474 304.440277,150.052063 
	C297.314240,144.022964 289.045441,143.454117 280.386566,145.599380 
	C256.309235,151.564606 232.234024,157.539566 208.187775,163.628372 
	C200.939728,165.463669 193.654129,167.306900 186.627853,169.822708 
	C177.598816,173.055588 172.432037,179.931091 172.356079,189.522354 
	C172.280685,199.042953 177.036972,205.967789 186.857971,209.804642 
M372.986725,376.477081 
	C356.013306,373.625122 339.027283,374.218597 322.307648,377.727478 
	C298.191437,382.788544 274.234619,388.610687 250.223862,394.168945 
	C248.297974,394.614746 246.397095,395.365601 244.628403,396.259277 
	C237.037827,400.094574 232.342972,408.760742 233.316605,416.904114 
	C234.385910,425.847839 240.346725,433.175812 248.955185,434.945465 
	C253.261520,435.830688 257.956024,436.002289 262.297363,435.337250 
	C280.071777,432.614502 297.712799,428.954712 315.529388,426.594147 
	C330.021606,424.674042 344.680573,423.873505 359.292389,423.055145 
	C366.241394,422.665924 371.496246,426.106628 374.034058,432.848419 
	C375.496185,436.732574 377.147614,440.645111 377.860657,444.695099 
	C381.813293,467.145844 381.278625,489.815857 380.716492,512.474365 
	C380.596710,517.303101 380.241455,522.136047 380.354645,526.958618 
	C380.679901,540.814758 390.483734,551.256958 403.465393,551.804871 
	C416.346008,552.348511 427.331146,543.124695 427.927399,529.222290 
	C428.826080,508.269043 428.721466,487.252075 428.377258,466.273132 
	C428.125488,450.928040 426.225067,435.709991 421.015106,421.081848 
	C412.859802,398.184021 398.292480,382.175659 372.986725,376.477081 
M430.077026,177.498001 
	C429.881561,166.521423 429.749023,155.543259 429.473022,144.568710 
	C429.195068,133.516357 421.333771,124.768379 410.578552,123.350609 
	C400.896667,122.074341 391.167694,128.443314 388.169159,138.583984 
	C386.912048,142.835327 386.421539,147.390640 386.153503,151.842133 
	C385.453217,163.472061 384.951843,175.117691 384.622650,186.764160 
	C384.513336,190.631592 382.829529,192.016190 379.214752,192.999390 
	C356.085968,199.290482 333.013489,205.793030 309.979523,212.424042 
	C306.185486,213.516281 302.429749,215.193192 299.073975,217.273575 
	C288.027557,224.121826 284.322021,236.080887 289.656189,246.567734 
	C294.813324,256.706543 306.394714,260.186523 318.548645,255.424988 
	C321.942932,254.095215 325.482452,253.044876 329.039795,252.238922 
	C342.356934,249.221710 355.696472,246.299362 369.055756,243.474564 
	C373.046906,242.630661 377.129974,242.221603 380.659668,241.690262 
	C380.659668,252.290466 380.857513,262.214508 380.612366,272.127655 
	C380.262543,286.273376 379.262115,300.408905 379.165314,314.553040 
	C379.099182,324.217865 384.036987,331.425812 392.857635,335.490967 
	C401.513885,339.480438 409.860870,338.212830 417.306213,332.458588 
	C424.137817,327.178589 426.468506,319.585541 426.848511,311.297363 
	C428.877045,267.054077 431.738617,222.830139 430.077026,177.498001 
z"/>
<path fill="#FEFDFF" opacity="1.000000" stroke="none" 
	d="
M186.482605,209.691528 
	C177.036972,205.967789 172.280685,199.042953 172.356079,189.522354 
	C172.432037,179.931091 177.598816,173.055588 186.627853,169.822708 
	C193.654129,167.306900 200.939728,165.463669 208.187775,163.628372 
	C232.234024,157.539566 256.309235,151.564606 280.386566,145.599380 
	C289.045441,143.454117 297.314240,144.022964 304.440277,150.052063 
	C311.697876,156.192474 314.510345,164.148773 312.442139,173.357544 
	C310.227936,183.216461 303.689209,189.345764 293.906860,191.546265 
	C279.293060,194.833588 264.631592,197.932999 249.926498,200.782623 
	C238.363541,203.023346 237.901093,202.806351 238.025146,214.672928 
	C238.268646,237.963394 239.038315,261.248260 239.567444,284.535950 
	C239.680695,289.520233 241.998230,292.485413 247.131607,292.425537 
	C259.084442,292.286163 271.067963,292.418732 282.975250,291.558136 
	C290.888153,290.986176 298.714844,289.009766 306.537384,287.447876 
	C318.680908,285.023163 330.280365,291.251862 334.237244,302.511627 
	C338.381531,314.304810 333.861145,327.204926 322.002441,331.594299 
	C311.375580,335.527679 299.897552,337.681915 288.603821,339.172729 
	C271.109009,341.482117 253.436569,342.640137 235.884766,339.151184 
	C210.828842,334.170502 195.366699,317.244934 192.048630,291.816742 
	C189.159531,269.676086 190.956757,247.615677 192.630508,225.536530 
	C192.794067,223.378876 193.045456,221.227905 193.254761,219.073700 
	C193.988403,211.522400 193.988190,211.522385 186.482605,209.691528 
z"/>
<path fill="#FEFDFF" opacity="1.000000" stroke="none" 
	d="
M373.396729,376.575378 
	C398.292480,382.175659 412.859802,398.184021 421.015106,421.081848 
	C426.225067,435.709991 428.125488,450.928040 428.377258,466.273132 
	C428.721466,487.252075 428.826080,508.269043 427.927399,529.222290 
	C427.331146,543.124695 416.346008,552.348511 403.465393,551.804871 
	C390.483734,551.256958 380.679901,540.814758 380.354645,526.958618 
	C380.241455,522.136047 380.596710,517.303101 380.716492,512.474365 
	C381.278625,489.815857 381.813293,467.145844 377.860657,444.695099 
	C377.147614,440.645111 375.496185,436.732574 374.034058,432.848419 
	C371.496246,426.106628 366.241394,422.665924 359.292389,423.055145 
	C344.680573,423.873505 330.021606,424.674042 315.529388,426.594147 
	C297.712799,428.954712 280.071777,432.614502 262.297363,435.337250 
	C257.956024,436.002289 253.261520,435.830688 248.955185,434.945465 
	C240.346725,433.175812 234.385910,425.847839 233.316605,416.904114 
	C232.342972,408.760742 237.037827,400.094574 244.628403,396.259277 
	C246.397095,395.365601 248.297974,394.614746 250.223862,394.168945 
	C274.234619,388.610687 298.191437,382.788544 322.307648,377.727478 
	C339.027283,374.218597 356.013306,373.625122 373.396729,376.575378 
z"/>
<path fill="#FEFDFF" opacity="1.000000" stroke="none" 
	d="
M430.081512,177.997437 
	C431.738617,222.830139 428.877045,267.054077 426.848511,311.297363 
	C426.468506,319.585541 424.137817,327.178589 417.306213,332.458588 
	C409.860870,338.212830 401.513885,339.480438 392.857635,335.490967 
	C384.036987,331.425812 379.099182,324.217865 379.165314,314.553040 
	C379.262115,300.408905 380.262543,286.273376 380.612366,272.127655 
	C380.857513,262.214508 380.659668,252.290466 380.659668,241.690262 
	C377.129974,242.221603 373.046906,242.630661 369.055756,243.474564 
	C355.696472,246.299362 342.356934,249.221710 329.039795,252.238922 
	C325.482452,253.044876 321.942932,254.095215 318.548645,255.424988 
	C306.394714,260.186523 294.813324,256.706543 289.656189,246.567734 
	C284.322021,236.080887 288.027557,224.121826 299.073975,217.273575 
	C302.429749,215.193192 306.185486,213.516281 309.979523,212.424042 
	C333.013489,205.793030 356.085968,199.290482 379.214752,192.999390 
	C382.829529,192.016190 384.513336,190.631592 384.622650,186.764160 
	C384.951843,175.117691 385.453217,163.472061 386.153503,151.842133 
	C386.421539,147.390640 386.912048,142.835327 388.169159,138.583984 
	C391.167694,128.443314 400.896667,122.074341 410.578552,123.350609 
	C421.333771,124.768379 429.195068,133.516357 429.473022,144.568710 
	C429.749023,155.543259 429.881561,166.521423 430.081512,177.997437 
z"/>
</svg>